<?xml version="1.0" encoding="UTF-8" standalone="no"?>
<!DOCTYPE svg PUBLIC "-//W3C//DTD SVG 1.1//EN"
 "http://www.w3.org/Graphics/SVG/1.1/DTD/svg11.dtd">
<!-- Generated by graphviz version 13.0.1 (0)
 -->
<!-- Title: call_graph Pages: 1 -->
<svg width="108pt" height="260pt"
 viewBox="0.00 0.00 108.00 260.00" xmlns="http://www.w3.org/2000/svg" xmlns:xlink="http://www.w3.org/1999/xlink">
<g id="graph0" class="graph" transform="scale(1 1) rotate(0) translate(4 256)">
<title>call_graph</title>
<polygon fill="white" stroke="none" points="-4,4 -4,-256 104,-256 104,4 -4,4"/>
<!-- 0 -->
<g id="node1" class="node">
<title>0</title>
<ellipse fill="none" stroke="black" cx="27" cy="-234" rx="27" ry="18"/>
<text xml:space="preserve" text-anchor="middle" x="27" y="-229.32" font-family="Times,serif" font-size="14.00">0</text>
</g>
<!-- 2 -->
<g id="node2" class="node">
<title>2</title>
<ellipse fill="none" stroke="black" cx="27" cy="-90" rx="27" ry="18"/>
<text xml:space="preserve" text-anchor="middle" x="27" y="-85.33" font-family="Times,serif" font-size="14.00">2</text>
</g>
<!-- 0&#45;&gt;2 -->
<g id="edge1" class="edge">
<title>0&#45;&gt;2</title>
<path fill="none" stroke="black" d="M23.75,-215.89C21.95,-205.54 19.91,-192.06 19,-180 17.8,-164.04 17.8,-159.96 19,-144 19.6,-135.99 20.71,-127.35 21.91,-119.43"/>
<polygon fill="black" stroke="black" points="25.35,-120.04 23.51,-109.61 18.45,-118.91 25.35,-120.04"/>
</g>
<!-- 1 -->
<g id="node4" class="node">
<title>1</title>
<ellipse fill="none" stroke="black" cx="55" cy="-162" rx="27" ry="18"/>
<text xml:space="preserve" text-anchor="middle" x="55" y="-157.32" font-family="Times,serif" font-size="14.00">1</text>
</g>
<!-- 0&#45;&gt;1 -->
<g id="edge6" class="edge">
<title>0&#45;&gt;1</title>
<path fill="none" stroke="black" d="M33.64,-216.41C36.77,-208.57 40.6,-198.99 44.15,-190.13"/>
<polygon fill="black" stroke="black" points="47.39,-191.46 47.85,-180.88 40.89,-188.86 47.39,-191.46"/>
</g>
<!-- 4 -->
<g id="node3" class="node">
<title>4</title>
<ellipse fill="none" stroke="black" cx="27" cy="-18" rx="27" ry="18"/>
<text xml:space="preserve" text-anchor="middle" x="27" y="-13.32" font-family="Times,serif" font-size="14.00">4</text>
</g>
<!-- 2&#45;&gt;4 -->
<g id="edge3" class="edge">
<title>2&#45;&gt;4</title>
<path fill="none" stroke="black" d="M21.12,-72.05C20.33,-64.57 20.08,-55.58 20.37,-47.14"/>
<polygon fill="black" stroke="black" points="23.85,-47.51 21.04,-37.3 16.87,-47.04 23.85,-47.51"/>
</g>
<!-- 4&#45;&gt;2 -->
<g id="edge2" class="edge">
<title>4&#45;&gt;2</title>
<path fill="none" stroke="black" d="M32.86,-35.79C33.66,-43.25 33.92,-52.24 33.64,-60.69"/>
<polygon fill="black" stroke="black" points="30.16,-60.33 32.98,-70.54 37.14,-60.8 30.16,-60.33"/>
</g>
<!-- 1&#45;&gt;2 -->
<g id="edge4" class="edge">
<title>1&#45;&gt;2</title>
<path fill="none" stroke="black" d="M48.36,-144.41C45.23,-136.57 41.4,-126.99 37.85,-118.13"/>
<polygon fill="black" stroke="black" points="41.11,-116.86 34.15,-108.88 34.61,-119.46 41.11,-116.86"/>
</g>
<!-- 1&#45;&gt;1 -->
<g id="edge5" class="edge">
<title>1&#45;&gt;1</title>
<path fill="none" stroke="black" d="M74.9,-174.43C87.69,-177.68 100,-173.53 100,-162 100,-153.98 94.05,-149.54 86.12,-148.66"/>
<polygon fill="black" stroke="black" points="86.09,-145.15 76.4,-149.45 86.65,-152.13 86.09,-145.15"/>
</g>
</g>
</svg>
