<?xml version="1.0" encoding="UTF-8" standalone="no"?>
<!DOCTYPE svg PUBLIC "-//W3C//DTD SVG 1.1//EN"
 "http://www.w3.org/Graphics/SVG/1.1/DTD/svg11.dtd">
<!-- Generated by graphviz version 13.0.1 (0)
 -->
<!-- Title: cfg Pages: 1 -->
<svg width="625pt" height="212pt"
 viewBox="0.00 0.00 625.00 212.00" xmlns="http://www.w3.org/2000/svg" xmlns:xlink="http://www.w3.org/1999/xlink">
<g id="graph0" class="graph" transform="scale(1 1) rotate(0) translate(4 207.75)">
<title>cfg</title>
<polygon fill="white" stroke="none" points="-4,4 -4,-207.75 620.5,-207.75 620.5,4 -4,4"/>
<!-- 0 -->
<g id="node1" class="node">
<title>0</title>
<polygon fill="none" stroke="black" points="0,-20.5 0,-96.25 90.25,-96.25 90.25,-20.5 0,-20.5"/>
<text xml:space="preserve" text-anchor="middle" x="45.12" y="-78.95" font-family="Times,serif" font-size="14.00">local.get 0</text>
<polyline fill="none" stroke="black" points="0,-71 90.25,-71"/>
<text xml:space="preserve" text-anchor="middle" x="45.12" y="-53.7" font-family="Times,serif" font-size="14.00">i32.eqz</text>
<polyline fill="none" stroke="black" points="0,-45.75 90.25,-45.75"/>
<text xml:space="preserve" text-anchor="middle" x="45.12" y="-28.45" font-family="Times,serif" font-size="14.00">br_if 0</text>
</g>
<!-- 1 -->
<g id="node2" class="node">
<title>1</title>
<polygon fill="none" stroke="black" points="160,-66.88 160,-167.88 254.75,-167.88 254.75,-66.88 160,-66.88"/>
<text xml:space="preserve" text-anchor="middle" x="207.38" y="-150.57" font-family="Times,serif" font-size="14.00">local.get 0</text>
<polyline fill="none" stroke="black" points="160,-142.62 254.75,-142.62"/>
<text xml:space="preserve" text-anchor="middle" x="207.38" y="-125.33" font-family="Times,serif" font-size="14.00">i32.const 1</text>
<polyline fill="none" stroke="black" points="160,-117.38 254.75,-117.38"/>
<text xml:space="preserve" text-anchor="middle" x="207.38" y="-100.08" font-family="Times,serif" font-size="14.00">i32.eq</text>
<polyline fill="none" stroke="black" points="160,-92.12 254.75,-92.12"/>
<text xml:space="preserve" text-anchor="middle" x="207.38" y="-74.83" font-family="Times,serif" font-size="14.00">br_if 1</text>
</g>
<!-- 0&#45;&gt;1 -->
<g id="edge1" class="edge">
<title>0&#45;&gt;1</title>
<path fill="none" stroke="black" d="M90.34,-74.65C108.39,-81.3 129.51,-89.07 148.74,-96.16"/>
<polygon fill="black" stroke="black" points="147.49,-99.43 158.09,-99.6 149.91,-92.86 147.49,-99.43"/>
<text xml:space="preserve" text-anchor="middle" x="125.12" y="-97.11" font-family="Times,serif" font-size="14.00">false</text>
</g>
<!-- 3 -->
<g id="node4" class="node">
<title>3</title>
<polygon fill="none" stroke="black" points="272.75,-0.5 272.75,-76.25 376.5,-76.25 376.5,-0.5 272.75,-0.5"/>
<text xml:space="preserve" text-anchor="middle" x="324.62" y="-58.95" font-family="Times,serif" font-size="14.00">i32.const 42</text>
<polyline fill="none" stroke="black" points="272.75,-51 376.5,-51"/>
<text xml:space="preserve" text-anchor="middle" x="324.62" y="-33.7" font-family="Times,serif" font-size="14.00">local.set 1</text>
<polyline fill="none" stroke="black" points="272.75,-25.75 376.5,-25.75"/>
<text xml:space="preserve" text-anchor="middle" x="324.62" y="-8.45" font-family="Times,serif" font-size="14.00">br 1</text>
</g>
<!-- 0&#45;&gt;3 -->
<g id="edge3" class="edge">
<title>0&#45;&gt;3</title>
<path fill="none" stroke="black" d="M90.71,-55.16C136.86,-51.84 209.32,-46.61 261.17,-42.88"/>
<polygon fill="black" stroke="black" points="261.32,-46.37 271.05,-42.16 260.82,-39.39 261.32,-46.37"/>
<text xml:space="preserve" text-anchor="middle" x="125.12" y="-57.64" font-family="Times,serif" font-size="14.00">true</text>
</g>
<!-- 2 -->
<g id="node3" class="node">
<title>2</title>
<polygon fill="none" stroke="black" points="394.5,-127.5 394.5,-203.25 489.25,-203.25 489.25,-127.5 394.5,-127.5"/>
<text xml:space="preserve" text-anchor="middle" x="441.88" y="-185.95" font-family="Times,serif" font-size="14.00">i32.const 7</text>
<polyline fill="none" stroke="black" points="394.5,-178 489.25,-178"/>
<text xml:space="preserve" text-anchor="middle" x="441.88" y="-160.7" font-family="Times,serif" font-size="14.00">local.set 1</text>
<polyline fill="none" stroke="black" points="394.5,-152.75 489.25,-152.75"/>
<text xml:space="preserve" text-anchor="middle" x="441.88" y="-135.45" font-family="Times,serif" font-size="14.00">br 2</text>
</g>
<!-- 1&#45;&gt;2 -->
<g id="edge2" class="edge">
<title>1&#45;&gt;2</title>
<path fill="none" stroke="black" d="M255.15,-127.03C292.04,-134.65 343.67,-145.31 383.13,-153.45"/>
<polygon fill="black" stroke="black" points="382.2,-156.83 392.7,-155.43 383.61,-149.98 382.2,-156.83"/>
<text xml:space="preserve" text-anchor="middle" x="324.62" y="-155.14" font-family="Times,serif" font-size="14.00">false</text>
</g>
<!-- 4 -->
<g id="node5" class="node">
<title>4</title>
<polygon fill="none" stroke="black" points="526.25,-73.38 526.25,-109.38 616.5,-109.38 616.5,-73.38 526.25,-73.38"/>
<text xml:space="preserve" text-anchor="middle" x="571.38" y="-87.08" font-family="Times,serif" font-size="14.00">local.get 1</text>
</g>
<!-- 1&#45;&gt;4 -->
<g id="edge4" class="edge">
<title>1&#45;&gt;4</title>
<path fill="none" stroke="black" d="M255,-112.89C292.63,-109.37 346.94,-104.52 394.5,-101.12 434.65,-98.26 480,-95.76 514.6,-94.01"/>
<polygon fill="black" stroke="black" points="514.57,-97.52 524.39,-93.53 514.22,-90.53 514.57,-97.52"/>
<text xml:space="preserve" text-anchor="middle" x="441.88" y="-105.08" font-family="Times,serif" font-size="14.00">true</text>
</g>
<!-- 2&#45;&gt;4 -->
<g id="edge5" class="edge">
<title>2&#45;&gt;4</title>
<path fill="none" stroke="black" d="M489.63,-138.24C502.53,-130.75 516.43,-122.69 529,-115.39"/>
<polygon fill="black" stroke="black" points="530.55,-118.54 537.44,-110.49 527.03,-112.48 530.55,-118.54"/>
</g>
<!-- 3&#45;&gt;4 -->
<g id="edge6" class="edge">
<title>3&#45;&gt;4</title>
<path fill="none" stroke="black" d="M376.69,-47C409.07,-52.73 451.77,-60.76 489.25,-69.38 497.56,-71.29 506.3,-73.47 514.84,-75.7"/>
<polygon fill="black" stroke="black" points="513.87,-79.07 524.44,-78.26 515.67,-72.3 513.87,-79.07"/>
</g>
</g>
</svg>
